<?xml version="1.0" standalone="no"?>
<!DOCTYPE svg PUBLIC "-//W3C//DTD SVG 1.1//EN" "http://www.w3.org/Graphics/SVG/1.1/DTD/svg11.dtd" >
<svg xmlns="http://www.w3.org/2000/svg">
<metadata>Generated by IcoMoon</metadata>
<defs>
<font id="icomoon" horiz-adv-x="1024">
<font-face units-per-em="1024" ascent="960" descent="-64" />
<missing-glyph horiz-adv-x="1024" />
<glyph unicode="&#x20;" d="" horiz-adv-x="512" />
<glyph unicode="&#xe600;" d="M575.047 887.562c49.549 0 76.221 30.188 102.265 68.735 59.122-11.609 96.216-23.159 133.287-72.089-4.469-7.545-8.938-15.090-13.411-22.635-53.407-94.101-62.766-118.276-78.792-224.649-4.715-31.411-8.76-62.357-12.57-93.887 58.924-141.427 62.845-224.887 72.926-372.176 2.762-43.496 5.172-77.173 10.53-113.545 4.255-28.859 10.895-54.161 12.522-83.44-58.713-32.109-60.849-32.296-116.954-27.803-21.452 1.719-21.536-13.415-43.988-5.735-33.728 18.726-37.269 1.889-62.373-1.663-26.021-3.675-30.998 19.829-62.722-0.028-11.081-6.934-31.244 1.159-43.77 8.049-57.495-6.628-71.974-1.099-123.686 27.18 1.627 29.283 8.263 54.582 12.518 83.44 5.366 36.372 7.767 70.049 10.53 113.545 10.077 147.289 13.999 230.753 72.93 372.176-3.818 31.53-7.863 62.476-12.574 93.887-16.031 106.369-25.386 130.544-78.8 224.649-4.473 7.545-8.942 15.090-13.415 22.635 37.066 48.93 74.169 60.48 133.283 72.089 26.041-38.547 52.708-68.735 102.265-68.735z" horiz-adv-x="1135" />
<glyph unicode="&#xe601;" d="M767.841 213.56c7.112-7.12 7.112-18.658 0-25.771l-204.546-232.003c-7.116-7.12-18.654-7.12-25.771 0l-197.684 232c-7.112 7.112-7.112 18.65 0 25.771h428zM518.85 211.889v723.881c0 6.188 5.060 11.248 11.248 11.248h47.481c6.188 0 11.248-5.060 11.248-11.248v-723.881z" horiz-adv-x="1135" />
<glyph unicode="&#xe602;" d="M432.517 872.555c75.748 0 146.968-29.498 200.529-83.063 53.569-53.566 83.067-124.781 83.067-200.529 0-75.752-29.498-146.972-83.067-200.533-53.562-53.569-124.781-83.067-200.529-83.067-75.752 0-146.968 29.498-200.533 83.067-53.569 53.562-83.067 124.777-83.067 200.533 0 75.748 29.498 146.968 83.067 200.529 53.566 53.566 124.777 83.063 200.533 83.063zM432.517 944.124c-196.16 0-355.169-159.014-355.169-355.165 0-196.156 159.010-355.169 355.169-355.169 196.152 0 355.161 159.014 355.161 355.169 0 196.152-159.010 355.165-355.161 355.165v0zM1043.996 120.233c0 0-153.965 154.91-178.74 179.371-23.993 23.691-71.398-0.742-74.347-2.302l-83.404 83.639-67.882-64.512 83.424-85.127c0-0.004-26.834-49.724-2.373-74.498s179.371-178.74 179.371-178.74 38.682-54.673 97.522-5.644c13.903 11.585 52.073 50.287 52.073 50.287 41.766 72.863-5.644 97.526-5.644 97.526z" horiz-adv-x="1135" />
<glyph unicode="&#xe603;" d="M1014.498-36.158h-320.194c-29.22 0-54.764 10.732-75.931 31.899-21.167 21.159-31.903 46.711-31.903 75.931v240.148c0 29.216 10.736 54.76 31.907 75.931 21.179 21.171 46.723 31.903 75.927 31.903h320.194c29.2 0 54.744-10.732 75.919-31.895 21.179-21.19 31.911-46.735 31.911-75.939v-240.148c0-29.208-10.736-54.756-31.907-75.931-21.163-21.167-46.707-31.899-75.923-31.899zM694.304 364.088c-14.328 0-25.973-4.965-36.642-15.63-10.661-10.657-15.626-22.302-15.626-36.634v-240.148c0-14.336 4.965-25.981 15.626-36.638s22.302-15.626 36.642-15.626h320.194c14.336 0 25.977 4.965 36.63 15.622 10.669 10.669 15.634 22.31 15.634 36.642v240.148c0 14.328-4.969 25.973-15.638 36.646-10.661 10.657-22.302 15.622-36.63 15.622h-320.191zM454.16-36.158h-320.198c-29.228 0-54.776 10.732-75.935 31.903-21.159 21.151-31.895 46.703-31.895 75.927v240.148c0 29.22 10.736 54.764 31.907 75.935 21.167 21.167 46.715 31.899 75.927 31.899h320.194c29.196 0 54.74-10.732 75.919-31.895 21.179-21.194 31.911-46.739 31.911-75.939v-240.148c0-29.208-10.732-54.756-31.899-75.931-21.175-21.167-46.719-31.899-75.931-31.899zM133.961 364.088c-14.332 0-25.973-4.965-36.638-15.63-10.665-10.661-15.63-22.302-15.63-36.638v-240.148c0-14.34 4.965-25.985 15.626-36.634 10.661-10.669 22.298-15.63 36.642-15.63h320.194c14.336 0 25.977 4.965 36.638 15.626 10.657 10.665 15.626 22.306 15.626 36.638v240.148c0 14.328-4.965 25.973-15.634 36.65-10.661 10.649-22.306 15.618-36.63 15.618h-320.194zM1014.498 444.134h-320.194c-29.224 0-54.772 10.736-75.931 31.903-21.167 21.151-31.903 46.699-31.903 75.923v240.152c0 29.216 10.736 54.764 31.907 75.931s46.715 31.899 75.927 31.899h320.194c29.208 0 54.748-10.732 75.923-31.899 21.175-21.179 31.911-46.723 31.911-75.931v-240.148c0-29.216-10.736-54.764-31.911-75.931-21.155-21.163-46.703-31.899-75.923-31.899zM694.304 844.375c-14.332 0-25.973-4.965-36.638-15.63-10.665-10.661-15.63-22.302-15.63-36.634v-240.148c0-14.34 4.965-25.977 15.622-36.63 10.665-10.669 22.306-15.63 36.646-15.63h320.194c14.336 0 25.977 4.961 36.63 15.622 10.669 10.669 15.634 22.31 15.634 36.642v240.144c0 14.328-4.965 25.969-15.634 36.638-10.661 10.661-22.302 15.626-36.63 15.626h-320.194zM454.16 444.134h-320.198c-29.232 0-54.78 10.736-75.935 31.907-21.159 21.139-31.895 46.691-31.895 75.923v240.148c0 29.22 10.736 54.768 31.907 75.931 21.163 21.163 46.707 31.899 75.923 31.899h320.194c29.2 0 54.744-10.732 75.923-31.895 21.175-21.186 31.907-46.731 31.907-75.935v-240.148c0-29.216-10.732-54.76-31.903-75.927-21.163-21.171-46.707-31.903-75.923-31.903zM133.961 844.375c-14.336 0-25.977-4.965-36.634-15.626-10.665-10.661-15.63-22.302-15.63-36.638v-240.148c0-14.344 4.961-25.981 15.622-36.63 10.665-10.669 22.302-15.634 36.646-15.634h320.194c14.336 0 25.977 4.965 36.638 15.626s15.626 22.302 15.626 36.638v240.148c0 14.328-4.965 25.973-15.63 36.642-10.661 10.657-22.306 15.622-36.63 15.622h-320.202z" horiz-adv-x="1135" />
<glyph unicode="&#xe604;" d="M520.402 698.503c0-35.943-6.517-68.723-19.539-98.371-13.034-29.644-30.319-55.145-51.879-76.471-21.56-21.337-46.604-37.848-75.125-49.521-28.529-11.685-58.281-17.519-89.275-17.519-34.141 0-65.472 5.834-93.99 17.519-28.529 11.673-53.228 28.184-74.113 49.521-20.889 21.329-37.174 46.826-48.85 76.471-11.685 29.644-17.515 62.428-17.515 98.371 0 37.277 5.83 71.081 17.519 101.4 11.677 30.319 27.962 56.256 48.85 77.82 20.885 21.56 45.584 38.285 74.113 50.192 28.517 11.899 59.844 17.856 93.986 17.856 34.129 0 65.691-5.957 94.664-17.856 28.974-11.907 53.903-28.632 74.788-50.192 20.885-21.564 37.162-47.501 48.846-77.82 11.677-30.319 17.519-64.123 17.519-101.4zM828.984 905.347c6.739 7.632 15.046 14.705 24.929 21.222 9.875 6.505 23.58 9.768 41.099 9.768h152.27l-739.788-952.022c-6.739-8.537-15.162-15.614-25.267-21.226-10.105-5.624-22.349-8.422-36.717-8.422h-156.315l739.788 950.681zM360.047 698.503c0 22.905-1.917 41.877-5.727 56.931-3.822 15.046-9.097 27.057-15.832 36.046-6.739 8.982-14.717 15.265-23.917 18.865-9.212 3.592-19.202 5.39-29.982 5.39s-20.667-1.802-29.644-5.39c-8.99-3.6-16.622-9.883-22.905-18.865-6.295-8.99-11.236-21.004-14.824-36.046-3.6-15.054-5.39-34.026-5.39-56.931 0-21.56 1.79-39.531 5.39-53.903 3.588-14.384 8.525-25.834 14.824-34.364 6.283-8.537 13.915-14.602 22.905-18.19 8.982-3.6 18.865-5.39 29.644-5.39s20.77 1.79 29.982 5.39c9.2 3.592 17.182 9.657 23.917 18.19 6.739 8.525 12.010 19.98 15.832 34.364 3.81 14.372 5.727 32.343 5.727 53.903zM1085.015 185.094c0-35.943-6.517-68.842-19.539-98.705-13.034-29.875-30.319-55.483-51.879-76.812-21.56-21.337-46.604-37.844-75.125-49.521-28.529-11.677-58.281-17.519-89.275-17.519-34.141 0-65.472 5.842-93.99 17.519-28.529 11.673-53.228 28.184-74.113 49.521-20.889 21.329-37.174 46.933-48.85 76.812-11.685 29.863-17.519 62.762-17.519 98.705 0 37.281 5.83 71.081 17.519 101.4 11.673 30.319 27.962 56.26 48.85 77.82 20.885 21.56 45.584 38.289 74.113 50.196 28.521 11.895 59.848 17.856 93.99 17.856 34.129 0 65.691-5.957 94.664-17.856 28.974-11.907 53.903-28.636 74.788-50.196s37.162-47.501 48.846-77.82c11.677-30.319 17.519-64.119 17.519-101.4zM924.66 185.094c0 22.453-1.917 41.206-5.727 56.26-3.822 15.042-9.097 27.053-15.832 36.046-6.739 8.978-14.717 15.265-23.917 18.865-9.212 3.592-19.202 5.39-29.982 5.39s-20.667-1.798-29.644-5.39c-8.99-3.6-16.622-9.887-22.909-18.865-6.295-8.994-11.232-21.004-14.82-36.046-3.6-15.054-5.39-33.808-5.39-56.26 0-21.564 1.79-39.531 5.39-53.899 3.588-14.384 8.525-25.838 14.82-34.364 6.283-8.537 13.919-14.602 22.909-18.19 8.982-3.6 18.865-5.39 29.644-5.39s20.77 1.79 29.982 5.39c9.2 3.588 17.182 9.653 23.917 18.19 6.735 8.525 12.010 19.98 15.832 34.364 3.81 14.368 5.727 32.339 5.727 53.899z" horiz-adv-x="1135" />
<glyph unicode="&#xe605;" d="M651.066-66.87c-20.452 0-38.602 7.656-52.506 22.131l-166.745 166.741c-14.304 14.296-21.873 32.363-21.873 52.252v303.628l-311.788 311.792c-22.893 21.714-28.902 51.311-16.487 81.281l0.234 0.544c12.609 28.938 36.82 44.877 68.16 44.877h835.008c31.335 0 55.534-15.936 68.156-44.869l0.246-0.556c12.407-29.97 6.39-59.563-16.491-81.281l-311.792-311.788v-470.631c0-31.331-15.932-55.53-44.869-68.156l-1.342-0.56c-9.367-3.588-18.753-5.406-27.91-5.406zM141.372 845.895c-2.366-5.787-1.528-6.569 1.457-9.359l0.766-0.746 331.093-331.085v-330.446c0-2.358 0.448-4.001 2.893-6.446l167.618-167.634c1.512-1.588 2.711-2.298 5.866-2.298 0.615 0 1.925 0.123 4.068 0.877 4.802 2.199 5.307 3.715 5.307 8.502v497.442l331.859 331.832c2.981 2.79 3.818 3.572 1.457 9.347-2.302 5.211-3.751 5.747-8.688 5.747h-835.008c-4.933 0.004-6.378-0.532-8.688-5.731z" horiz-adv-x="1135" />
<glyph unicode="&#xe606;" d="M1091.473 597.024h-1043.845c-16.44 0-29.767 13.328-29.767 29.767v269.63c0 16.44 13.328 29.767 29.767 29.767h1043.845c16.44 0 29.767-13.328 29.767-29.767v-269.63c0-16.44-13.328-29.767-29.767-29.767zM77.395 656.559h984.31v210.095h-984.31v-210.095zM1091.473-49.196h-1043.845c-16.44 0-29.767 13.324-29.767 29.767v530.932c0 16.44 13.328 29.767 29.767 29.767h1043.845c16.44 0 29.767-13.328 29.767-29.767v-530.936c0-16.44-13.328-29.763-29.767-29.763zM77.395 10.339h984.31v471.397h-984.31v-471.397z" horiz-adv-x="1135" />
<glyph unicode="&#xe607;" d="M545.189 875.798c60.011 0 111.247-21.23 153.707-63.69s63.69-93.696 63.69-153.707c0-60.011-21.23-111.247-63.69-153.707s-93.696-63.694-153.707-63.694c-60.011 0-111.247 21.234-153.707 63.694-42.456 42.46-63.686 93.696-63.686 153.707s21.23 111.247 63.69 153.707c42.46 42.46 93.692 63.69 153.703 63.69zM747.865 477.236c23.016 0 44.060-3.782 63.127-11.328 19.055-7.553 35.185-17.646 48.406-30.283 13.205-12.653 24.909-27.938 35.098-45.858 10.192-17.932 18.305-36.332 24.346-55.201 6.033-18.877 11.038-39.349 14.999-61.428 3.965-22.076 6.6-42.655 7.93-61.71 1.318-19.059 1.981-38.594 1.981-58.59 0-45.29-13.784-81.055-41.329-107.282-27.553-26.235-64.167-39.353-109.83-39.353h-494.806c-45.667 0-82.281 13.118-109.83 39.353-27.553 26.231-41.329 61.992-41.329 107.286 0 19.996 0.655 39.531 1.984 58.59 1.318 19.059 3.961 39.634 7.926 61.71 3.965 22.080 8.966 42.548 15.003 61.428 6.037 18.869 14.153 37.269 24.342 55.201 10.192 17.92 21.885 33.205 35.102 45.858 13.205 12.641 29.339 22.734 48.402 30.283 19.055 7.545 40.099 11.328 63.127 11.328 3.397 0 11.324-4.060 23.778-12.173 12.455-8.121 26.513-17.182 42.178-27.18 15.654-10.002 36.038-19.059 61.142-27.172 25.096-8.117 50.291-12.169 75.582-12.169 25.282 0 50.474 4.052 75.578 12.169 25.096 8.113 45.477 17.174 61.142 27.172 15.658 9.998 29.724 19.059 42.175 27.18 12.459 8.109 20.381 12.169 23.778 12.169zM545.189 935.333c-76.094 0-141.971-27.295-195.802-81.126s-81.126-119.713-81.126-195.806c0-45.699 9.843-87.715 29.371-125.65-13.963-2.592-27.382-6.426-40.166-11.49-26.168-10.367-48.926-24.711-67.648-42.631-17.305-16.563-32.677-36.558-45.687-59.432-12.189-21.448-22.044-43.818-29.299-66.496-6.803-21.27-12.486-44.496-16.896-69.041-4.326-24.104-7.263-47.025-8.72-68.132-1.409-20.218-2.123-41.325-2.123-62.686 0-62.019 20.123-112.62 59.813-150.405 38.852-36.999 89.62-55.768 150.881-55.768h494.806c61.257 0 112.021 18.765 150.885 55.772 39.686 37.789 59.809 88.393 59.809 150.401 0 21.206-0.714 42.298-2.123 62.69-1.48 21.238-4.414 44.143-8.724 68.136-4.386 24.461-10.069 47.687-16.884 69.021-7.283 22.742-17.138 45.104-29.299 66.5-12.991 22.846-28.354 42.837-45.671 59.428-18.773 17.948-41.52 32.28-67.651 42.639-12.8 5.064-26.223 8.902-40.182 11.494 19.527 37.936 29.375 79.951 29.375 125.65 0 76.094-27.295 141.975-81.13 195.806-53.831 53.831-119.709 81.126-195.806 81.126v0z" horiz-adv-x="1135" />
<glyph unicode="&#xe608;" d="M676.904 657.698c-149.992-44.762-243.589-36.364-243.589-36.364v-345.588c0 0 93.597 8.402 243.589-36.356 113.164-33.772 243.597-148.44 243.597-148.44v715.181c0 0-130.433-114.66-243.597-148.432zM1035.149 541.93c-1.024 0-2.040-0.044-3.052-0.075v287.923c0.75 3.056 1.199 6.231 1.199 9.518 0 21.869-18.015 43.119-39.599 39.599-16.531-2.695-29.101-24.973-38.848-31.966h-0.746v-790.437h0.746c9.748-7.406 22.322-31.010 38.848-33.867 21.583-3.731 39.599 18.777 39.599 41.948 0 3.481-0.445 6.847-1.199 10.081v279.342c1.012-0.032 2.028-0.075 3.052-0.075 51.918 0 94.006 42.087 94.006 94.006s-42.087 94.006-94.006 94.006zM134.922 618.528v-3.35c-16.102-30.891-27.727-68.675-33.395-109.786h-36.241c-23.072 0.004-41.778-18.702-41.778-41.778v-26.406c0-23.076 18.706-41.782 41.778-41.782h36.292c5.688-40.96 17.289-78.602 33.344-109.397v-3.35h260.429v335.848h-260.429zM347.981 169.583h38.932l-19.5 76.538h-39.087l-9.391 36.562h-109.508l75.208-292.832h109.504z" horiz-adv-x="1135" />
<glyph unicode="&#xe609;" d="M681.678 909.518c-8.998-17.098-30.375-38.333-24.326-59.043 35.479-26.41 90.287-77.046 100.749-128.579 3.263-16.055-4.414-37.047 0-55.606 3.227-13.451 15.67-20.817 17.372-34.752 7.053-58.003-30.585-92.339-48.652-128.548-8.617-17.305-8.617-41.599-17.376-62.555-15.221-36.554-44.171-47.85-41.666-79.928 3.405-44.48 54.907-56.538 76.419-79.892-76.352-79.134-282.604-81.737-354.399 3.473 34.161 21.028 75.518 40.627 76.419 79.896 1.111 47.787-66.893 85.941-59.043 142.483-28.077 31.137-55.256 72.946-48.652 125.071 1.945 15.57 13.971 23.77 17.376 41.702 3.683 19.46-2.778 35.721 0 55.606 37.844 36.177 47.545 90.489 86.846 125.107 50.422 44.306 130.108 40.273 215.461 55.566zM1029.132-8.406c2.016 173.409-129.036 213.758-246.705 267.554-87.957-103.666-340.813-108.528-427.381 0-94.109-47.334-206.427-69.366-236.278-187.658-4.275-16.821-18.317-70.342-10.427-79.896 7.299-8.898 81.249-3.477 114.644-3.477 260.608 0 558.985 0 806.142 0z" horiz-adv-x="1135" />
<glyph unicode="&#xe60a;" d="M491.191 948.474c-206.126-49.208-217.235-334.999-225.312-584.895 62.504-23.965 133.676-39.265 207.102-52.327-2.366-34.828-7.259-67.1-20.484-91.045-5.692-9.474-26.449-3.89-36.419-9.109 4.846-86.83 82.781-152.79 170.683-138.823 66.826 10.629 110.917 63.504 120.634 136.549-5.985 9.192-27.811 2.552-36.416 9.101-11.629 26.31-17.797 58.062-20.484 93.323 74.065 11.653 141.098 30.339 207.102 50.049-3.87 202.577-17.912 447.782-134.291 546.201-22.441 19.011-53.554 34.078-88.743 40.976h-143.372zM1035.113-36.606c-11.585 78.435-21.945 145.396-72.835 182.070-56.153 40.44-139.185 41.901-218.485 63.706-13.292-92.521-66.393-158.784-157.029-170.683-112.211-14.729-193.834 62.139-204.824 168.412-82.511-15.939-165.499-23.064-218.461-61.436-47.076-34.102-62.258-113.192-75.117-182.070h946.752z" horiz-adv-x="1135" />
<glyph unicode="&#xe60b;" d="M567.566-2.298c-10.169 0-18.761 3.517-25.798 10.55l-365.87 352.97c-3.913 3.124-9.291 8.208-16.126 15.245-6.843 7.033-17.694 19.833-32.546 38.404-14.856 18.559-28.14 37.614-39.869 57.165-11.728 19.543-22.187 43.183-31.367 70.946-9.184 27.751-13.776 54.724-13.776 80.912 0 85.992 24.818 153.223 74.462 201.7 49.64 48.465 118.236 72.704 205.804 72.704 24.231 0 48.958-4.207 74.173-12.606 25.211-8.41 48.664-19.742 70.358-34.006 21.695-14.272 40.353-27.66 55.995-40.162 15.63-12.514 30.49-25.798 44.564-39.872 14.070 14.070 28.922 27.358 44.564 39.872 15.63 12.502 34.3 25.89 55.995 40.162 21.695 14.265 45.147 25.596 70.358 34.006 25.207 8.398 49.922 12.606 74.165 12.606 87.556 0 156.156-24.239 205.804-72.704 49.636-48.473 74.462-115.708 74.462-201.7 0-86.393-44.762-174.338-134.267-263.847l-365.286-351.8c-7.037-7.029-15.638-10.546-25.798-10.546zM567.566-34.050c-18.468 0-35.066 6.787-48.021 19.623l-364.727 351.867c-4.783 3.953-10.633 9.502-17.825 16.908-7.628 7.843-18.94 21.159-34.562 40.69-15.65 19.551-29.887 39.964-42.302 60.662-12.891 21.48-24.425 47.493-34.288 77.312-10.2 30.827-15.38 61.408-15.38 90.882 0 94.466 28.275 169.972 84.032 224.415 55.55 54.24 132.259 81.741 227.987 81.741 27.529 0 55.86-4.791 84.21-14.233 27.719-9.248 53.883-21.897 77.764-37.598 22.397-14.733 42.036-28.827 58.376-41.893 8.438-6.759 16.702-13.76 24.731-20.964 8.041 7.212 16.301 14.213 24.723 20.952 16.285 13.030 35.923 27.124 58.38 41.901 23.889 15.709 50.049 28.358 77.76 37.598 28.366 9.446 56.697 14.237 84.226 14.237 95.716 0 172.421-27.501 227.983-81.733 55.764-54.459 84.035-129.965 84.035-224.419 0-94.708-48.303-191.032-143.566-286.295l-0.425-0.417-365.092-351.613c-12.963-12.844-29.557-19.623-48.021-19.623zM322.481 866.546c-79.678 0-139.74-20.829-183.621-63.671-43.667-42.639-64.893-101.185-64.893-178.982 0-22.679 4.096-46.544 12.169-70.93 8.398-25.386 17.968-47.116 28.454-64.587 10.954-18.265 23.548-36.316 37.432-53.661 17.606-22.012 26.31-31.784 30.514-36.11 7.724-7.954 11.566-11.288 13.169-12.566l2.242-1.969 366.271-353.367c0.893-0.893 1.334-1.25 3.35-1.25s2.457 0.361 3.35 1.25l0.425 0.417 365.064 351.585c82.781 82.853 124.761 163.999 124.761 241.184 0 77.792-21.226 136.339-64.897 178.982-43.889 42.845-103.952 63.675-183.617 63.675-20.69 0-42.27-3.695-64.135-10.978-22.48-7.497-43.663-17.733-62.948-30.414-20.813-13.693-38.852-26.624-53.601-38.424-14.665-11.74-28.779-24.366-41.948-37.531l-22.453-22.453-22.453 22.453c-13.129 13.129-27.247 25.759-41.956 37.539-14.8 11.832-32.839 24.763-53.597 38.42-19.277 12.677-40.46 22.909-62.952 30.414-21.857 7.279-43.437 10.974-64.127 10.974z" horiz-adv-x="1135" />
<glyph unicode="&#xe60c;" d="M862.839 271.273c-54.431 0-102.737-26.243-132.957-66.754l-301.699 188.134c6.386 17.622 9.871 36.63 9.871 56.455 0 19.841-3.489 38.86-9.883 56.495l303.93 186.61c30.339-38.86 77.618-63.849 130.735-63.849 91.549 0 165.765 74.212 165.765 165.765 0.004 91.549-74.212 165.765-165.761 165.765s-165.765-74.216-165.765-165.765c0-14.467 1.857-28.497 5.338-41.877l-309.161-189.825c-30.244 32.276-73.248 52.442-120.967 52.442-91.545 0.004-165.761-74.212-165.761-165.761s74.216-165.765 165.765-165.765c47.735 0 90.747 20.178 120.995 52.47l308.2-192.194c-2.881-12.24-4.41-24.997-4.41-38.114 0-91.549 74.216-165.769 165.765-165.769s165.765 74.216 165.765 165.769c0 91.549-74.216 165.769-165.765 165.769z" horiz-adv-x="1135" />
<glyph unicode="&#xe60d;" d="M1033.875 909.927c-2.564 1.31-13.209-5.707-16.535-11.379 7.144-11.423 14.054-23.056 20.46-35.145 71.64-135.291 81.63-286.696 39.956-422.301-41.734-135.597-135.112-255.194-270.396-326.858-135.311-71.624-286.708-81.638-422.305-39.94-135.605 41.73-255.214 135.104-326.874 270.376-6.854 12.959-12.963 26.072-18.698 39.289-4.136-1.504-10.022-1.353-14.054-2.814-4.314-1.532-6.712-4.62-10.911-6.104 6.164-14.348 12.796-28.648 20.27-42.754 150.095-283.45 488.575-385.913 772.029-235.822 283.465 150.095 397.578 494.715 247.494 778.149-6.446 12.157-13.328 23.838-20.436 35.304zM438.403 556.004c-0.683-0.341-1.345-0.667-2.024-1.004l2.528 1.23-0.504-0.226zM350.065 513.27c-107.286-50.22-201.954-88.965-280.695-118.359 16.848-38.015 37.301-74.823 50.783-92.089 23.314-29.97 60.805-77.312 97.387-85.294 26.668-5.819 146.809 163.157 221.791 259.437 31.696 40.694 58.987 73.978 58.987 73.978 2.108 2.715 9.522 10.891 10.796 13.522 4.283 8.819-0.79 14.725-8.299 23.167-8.113-4.187-14.447-8.525-22.449-12.59-2.064-1.592-5.374-3.247-5.374-3.247l-122.928-58.527zM545.824 557.29c-2.997 17.587-13.697 29.994-31.768 0.937-7.378-11.867-9.208-17.392-11.085-19.916-2.163-2.905-18.392-31.434-46.076-67.318-68.592-102.749-172.234-235.31-179.319-246.99-6.954-11.466-37.336-39.142 6.465-68.735 43.853-29.605 137.819-60.801 175.485-65.484 37.682-4.691 97.689-11.645 129.211 8.573 22.949 14.693-8.887 224.704-24.413 345.259-8.791 50.978-14.586 90.259-14.586 90.259-0.937 7.525-3.024 18.234-3.913 23.417zM584.613 573.003c-13.050 9.26-31.542 7.025-27.366-17.599 1.822-10.74 5.906-26.148 5.906-26.148 2.905-10.819 14.007-41.893 19.813-86.988 19.436-112.735 42.917-279.401 46.271-293.32 3.132-13.006-1.381-57.646 50.533-47.6 51.942 10.073 140.419 54.451 170.373 77.804 29.938 23.314 77.3 60.833 85.282 97.407 5.838 26.656-105.135 102.194-201.339 176.43-42.206 29.807-135.025 106.893-135.025 106.893-5.969 4.636-10.165 10.077-14.447 13.121zM601.429 610.514c-17.249-0.766-34.57-14.868-12.439-30.573 8.871-6.287 18.468-12.26 22.631-15.622 2.854-2.31 16.868-8.363 52.811-36.11 63.563-44.044 257.846-178.497 269.891-188.452 10.331-8.541 33.784-40.519 63.365 3.314 29.613 43.822 60.809 137.776 65.496 175.453 4.683 37.701 11.649 97.693-8.589 129.222-14.729 22.961-223.986-11.899-344.501-27.422-40.206-6.672-61.023-4.703-87.77-9.47-5.969-0.536-16.555-0.147-20.897-0.341zM599.667 618.182c9.438 0.417 20.809 3.35 29.359 5.053 11.046 2.211 30.946 5.14 75.943 10.946 112.707 19.404 290.399 48.791 302.616 51.414 13.8 2.965 54.085 1.282 44.016 53.188-7.811 40.281-36.253 102.452-59.507 142.356-143.9-97.975-280.759-180.232-406.814-248.804 2.286-8.005 4.294-14.598 14.388-14.153z" horiz-adv-x="1135" />
<glyph unicode="&#xe60e;" d="M972.486 567.34c-1.746 82.293-65.072 114.533-65.072 114.533s-24.294 105.901-106.345 175.719-185.411 128.083-353.935 73.252-216.723-248.971-216.723-248.971c-113.866-81.412-49.958-190.087-49.958-190.087 25.259-45.179 77.816-48.116 77.816-48.116s88.949-189.833 300.564-195.024 322.112 195.024 322.112 195.024c60.507 5.846 93.287 41.373 91.541 123.67zM853.087 491.028c0 0-96.558-195.878-275.631-196.263s-266.049 142.483-292.721 196.263c0 0-43.786-14.59-66.58 27.434s-2.965 107.226 24.794 116.049c27.755 8.831 89.279 17.094 119.419 25.898s79.094 26.557 131.413 52.47 47.104 15.602 47.104 15.602 24.834-17.674-2.123-59.035 29.315-29.577 41.293-25.183 52.696 9.597 89.215 79.003c0 0 16.182 37.158 26.378 26.723s79.932-100.753 161.129-106.432c0 0 54.57-2.389 62.317-41.782s20.547-119.459-66.008-110.747zM800.149 236.77c0 0-54.562 3.29-108.651 0-27.132-1.651-73.994-141.070-122.63-151.504-48.64 10.434-95.502 149.853-122.634 151.504-54.089 3.29-108.651 0-108.651 0-75.133-9.446-150.445-78.026-146.65-145.92l1.488-147.381c97.895 0 310.403 0 374.641 0 1.139 0 2.358 0 3.616 0 64.238 0 276.746 0 374.641 0l1.488 147.381c3.786 67.89-71.525 136.474-146.658 145.92z" horiz-adv-x="1135" />
<glyph unicode="&#xe60f;" d="M933.737 595.508c-123.483 187.261-392.851 201.117-452.779 192.627v171.865l-340.829-329.74 340.833-329.724v199.164c297.047 12.070 349.478-164.007 349.478-164.007 84.42-323.604-210.511-397.026-210.511-397.026 349.807 53.478 456.236 440.844 313.808 656.84z" horiz-adv-x="1135" />
<glyph unicode="&#xe610;" d="M339.841 683.905c-7.112 7.12-7.112 18.658 0 25.771l204.542 232c7.116 7.12 18.654 7.12 25.771 0l197.684-232.003c7.112-7.112 7.112-18.65 0-25.771h-427.996zM588.832 685.572v-723.881c0-6.192-5.060-11.252-11.248-11.252h-47.481c-6.188 0-11.248 5.060-11.248 11.252v723.881z" horiz-adv-x="1135" />
<glyph unicode="&#xe611;" d="M567.566 958.956c-189.178 0-342.548-149.885-342.548-334.773 0-64.953 12.994-121.062 45.755-172.397l2.949-4.481 293.555-510.262 293.559 510.262 2.731 4.402c32.76 51.327 46.552 107.52 46.552 172.473-0.004 184.892-153.366 334.777-342.552 334.777zM568.594 323.477c-163.094 0-295.785 132.691-295.785 295.793 0 163.094 132.691 295.781 295.785 295.781 163.102 0 295.789-132.687 295.789-295.781 0-163.102-132.687-295.793-295.789-295.793z" horiz-adv-x="1135" />
<glyph unicode="&#xe612;" d="M572.289-51.184c-18.769 0-35.634 6.894-48.799 19.944l-370.64 357.574c-4.862 4.017-10.808 9.657-18.114 17.182-7.751 7.97-19.246 21.5-35.122 41.349-15.904 19.869-30.371 40.615-42.988 61.646-13.098 21.829-24.822 48.263-34.844 78.566-10.371 31.327-15.634 62.404-15.634 92.358 0 95.998 28.732 172.731 85.397 228.058 56.451 55.117 134.398 83.063 231.682 83.063 27.973 0 56.768-4.87 85.579-14.467 28.172-9.399 54.752-22.25 79.027-38.209 22.758-14.971 42.718-29.295 59.325-42.571 8.573-6.866 16.971-13.987 25.132-21.306 8.176 7.327 16.567 14.443 25.128 21.294 16.547 13.241 36.507 27.565 59.328 42.579 24.278 15.963 50.863 28.815 79.023 38.209 28.815 9.601 57.61 14.471 85.583 14.471 97.268 0 175.219-27.946 231.682-83.059 56.669-55.344 85.401-132.072 85.401-228.062 0-96.244-49.085-194.127-145.896-290.939l-0.433-0.425-371.017-357.32c-13.169-13.038-30.033-19.936-48.799-19.936zM323.227 864.022c-80.967 0-142.003-21.163-186.598-64.703-44.377-43.329-65.945-102.825-65.945-181.883 0-23.048 4.16-47.298 12.363-72.081 8.533-25.798 18.261-47.878 28.918-65.639 11.133-18.563 23.929-36.908 38.035-54.53 17.888-22.373 26.735-32.3 31.010-36.697 7.847-8.085 11.748-11.47 13.383-12.768l2.278-2 372.212-359.103c0.909-0.905 1.353-1.274 3.401-1.274s2.496 0.373 3.405 1.274l0.429 0.425 370.99 357.293c84.123 84.194 126.782 166.658 126.782 245.093 0 79.054-21.571 138.55-65.949 181.887-44.596 43.536-105.635 64.699-186.594 64.699-21.028 0-42.956-3.751-65.175-11.157-22.846-7.616-44.373-18.019-63.972-30.907-21.151-13.915-39.48-27.053-54.47-39.047-14.908-11.931-29.251-24.763-42.631-38.142l-22.818-22.818-22.818 22.818c-13.34 13.344-27.688 26.179-42.639 38.15-15.039 12.022-33.371 25.163-54.47 39.043-19.591 12.883-41.119 23.282-63.972 30.907-22.199 7.41-44.127 11.161-65.155 11.161z" horiz-adv-x="1135" />
<glyph unicode="&#xe613;" d="M720.396-69.029l-356.419 508.051 356.431 507.384 58.459-41.067-327.605-466.345 327.616-466.992z" horiz-adv-x="1135" />
<glyph unicode="&#xe614;" d="M124.252 899.667l916.831-903.061-13.925-14.138-916.831 903.061 13.925 14.138zM1027.205 899.622l13.925-14.14-916.96-903.061-13.925 14.14 916.96 903.061z" horiz-adv-x="1135" />
<glyph unicode="&#xe616;" d="M576.111 899.179l236.139-309.423c0.25-0.325 0.679-0.893 0.79-2.889h-473.858c0.111 2.004 0.544 2.572 0.766 2.862l236.163 309.45zM813.040 305.156c-0.111-1.996-0.544-2.564-0.77-2.862l-236.159-309.454-236.183 309.478c-0.218 0.286-0.643 0.837-0.75 2.838h473.862zM576.111 958.75c-9.645 0-17.98-4.62-25.013-13.836l-249.015-326.291c-7.041-9.228-10.558-20.155-10.558-32.772 0-12.633 3.517-23.56 10.558-32.776 7.037-9.228 15.376-13.836 25.013-13.836h498.025c9.633 0 17.968 4.608 25.013 13.836 7.033 9.22 10.561 20.143 10.561 32.776 0 12.617-3.528 23.544-10.561 32.772l-249.011 326.291c-7.045 9.216-15.38 13.836-25.013 13.836v0zM825.122 352.784h-498.025c-9.637 0-17.976-4.62-25.013-13.836-7.041-9.228-10.558-20.151-10.558-32.772 0-12.633 3.517-23.556 10.558-32.772l249.015-326.291c7.033-9.216 15.372-13.836 25.013-13.836 9.633 0 17.968 4.62 25.013 13.836l249.011 326.291c7.033 9.216 10.561 20.139 10.561 32.772 0 12.621-3.528 23.548-10.561 32.776-7.045 9.216-15.38 13.832-25.013 13.832v0z" horiz-adv-x="1135" />
<glyph unicode="&#xe617;" d="M860.696 585.851c0-12.633-3.528-23.56-10.561-32.776-7.041-9.228-15.38-13.836-25.013-13.836h-498.025c-9.637 0-17.976 4.608-25.013 13.836-7.041 9.216-10.558 20.143-10.558 32.776 0 12.617 3.517 23.544 10.558 32.772l249.015 326.291c7.033 9.216 15.368 13.836 25.013 13.836 9.633 0 17.968-4.62 25.013-13.836l249.011-326.287c7.033-9.232 10.561-20.159 10.561-32.776zM850.134 338.948c7.033-9.228 10.561-20.155 10.561-32.776 0-12.633-3.528-23.556-10.561-32.772l-249.011-326.291c-7.041-9.216-15.38-13.836-25.013-13.836-9.645 0-17.98 4.62-25.013 13.836l-249.015 326.291c-7.041 9.216-10.558 20.143-10.558 32.776 0 12.621 3.517 23.548 10.558 32.776 7.037 9.216 15.376 13.836 25.013 13.836h498.025c9.633-0.004 17.968-4.62 25.013-13.84z" horiz-adv-x="1135" />
<glyph unicode="&#xe618;" d="M781.963 146.511h-408.441c-10.804 0-20.516 6.581-24.528 16.61l-117.681 294.202c-2.81 7.029-2.473 14.927 0.933 21.691l235.917 468.567c4.533 9.006 13.701 14.737 23.87 14.538l45.469-0.472c14.483-0.151 26.14-11.931 26.14-26.41v-361.059c6.751-0.064 11.915 0.143 17.856 0.381 1.937 0.079 3.949 0.163 6.116 0.238v360.392c0 14.483 11.661 26.263 26.14 26.414l49.7 0.512c10.057 0.075 19.333-5.537 23.87-14.538l235.917-468.571c3.401-6.763 3.743-14.657 0.929-21.691l-117.681-294.202c-4.013-10.022-13.721-16.602-24.524-16.602zM391.402 199.347h372.676l106.615 266.538-223.153 443.233-7.101-0.071v-360.373c0-14.59-11.824-26.418-26.414-26.418h-1.556c-2.369 0.024-4.35 0.032-6.208 0.032-9.879 0-16.368-0.262-22.643-0.512-5.588-0.226-10.871-0.437-17.702-0.437-7.882 0-16.757 0.294-27.882 0.917h-0.81c-14.59 0-26.418 11.824-26.418 26.418v360.416l-2.866 0.028-223.157-443.229 106.615-266.542zM840.089-64c-0.028 0-0.052 0-0.079 0h-532.623c-9.252 0-17.833 4.846-22.615 12.768-4.779 7.922-5.064 17.769-0.754 25.957l62.698 119.070c4.568 8.68 13.566 14.114 23.373 14.114h406.314c9.756 0 18.706-5.374 23.302-13.975l62.722-117.403c2.584-4.080 4.080-8.918 4.080-14.114-0.004-14.594-11.828-26.418-26.418-26.418zM351.149-11.173h444.805l-35.392 66.246h-374.534l-34.88-66.246z" horiz-adv-x="1135" />
<glyph unicode="&#xe619;" d="M1101.685 574.789c-2.917 13.419-15.733 21.611-29.767 21.611h-356.308l-116.641 336.511c-5.108 14.634-15.189 21.575-30.926 21.575-15.725 0-26.426-6.942-31.47-21.575l-116.641-336.511h-356.368c-15.733 0-25.644-7.041-30.926-21.611-4.060-15.741-0.607-27.469 10.514-36.161l285.775-223.387-103.833-342.334c-4.544-15.003 0-27.386 11.661-36.146 12.899-7.577 26.314-8.506 38.527 0l292.761 204.129 292.154-204.129c6.259-4.362 12.879-5.83 19.258-5.83 18.107 0 32.077 14.030 32.077 32.093 0 2.893-0.361 7.037-2.306 13.423l-102.67 338.793 285.775 223.387c11.478 8.99 14.578 21.028 9.355 36.161v0z" horiz-adv-x="1135" />
<glyph unicode="&#xe61a;" d="M567.768 853.25l95.335-275.043c7.755-22.369 28.827-37.368 52.502-37.368h289.324l-232.599-181.816c-18.083-14.138-25.612-37.932-18.956-59.896l84.559-279.024-238.064 166.336c-9.557 6.68-20.69 10.014-31.827 10.014-11.117 0-22.234-3.33-31.78-9.986l-238.838-166.531 84.678 279.175c6.664 21.968-0.869 45.77-18.952 59.908l-232.599 181.816h289.383c23.675 0 44.746 14.999 52.502 37.368l95.331 275.047zM568.042 954.487c-15.725 0-26.426-6.942-31.47-21.575l-116.641-336.511h-356.368c-15.733 0-25.644-7.041-30.926-21.611-4.060-15.741-0.607-27.469 10.514-36.161l285.775-223.387-103.833-342.334c-4.544-15.003 0-27.386 11.661-36.146 6.632-3.898 13.403-6.037 20.079-6.037 6.303 0 12.514 1.901 18.448 6.037l292.761 204.129 292.154-204.129c6.259-4.362 12.879-5.83 19.258-5.83 18.107 0 32.077 14.030 32.077 32.093 0 2.893-0.361 7.037-2.306 13.423l-102.67 338.793 285.775 223.387c11.478 8.99 14.578 21.028 9.355 36.161-2.917 13.419-15.733 21.611-29.767 21.611h-356.308l-116.641 336.511c-5.108 14.634-15.189 21.575-30.926 21.575v0z" horiz-adv-x="1135" />
<glyph unicode="&#xe61b;" d="M290.788 722.226c-145.773 0-263.95-115.494-263.95-257.988 0-50.045 10.010-93.283 35.261-132.842l2.266-3.449 226.209-393.196 226.217 393.196 2.096 3.39c25.235 39.559 35.872 82.853 35.872 132.898 0 142.499-118.177 257.992-263.97 257.992zM291.594 232.535c-125.682 0-227.923 102.245-227.923 227.923 0 125.69 102.241 227.927 227.923 227.927 125.678 0 227.923-102.233 227.923-227.927 0-125.678-102.245-227.923-227.923-227.923zM996.372 959.095c-64.052 0-115.97-50.736-115.97-113.339 0-21.98 4.398-40.98 15.499-58.36l0.988-1.512 99.384-172.742 99.376 172.746 0.933 1.492c11.077 17.376 15.749 36.4 15.749 58.376 0.004 62.603-51.914 113.339-115.958 113.339zM996.717 743.96c-55.217 0-100.13 44.925-100.13 100.138 0 55.229 44.913 100.134 100.13 100.134s100.134-44.905 100.134-100.134c0-55.213-44.921-100.138-100.134-100.138zM978.273 613.142c-31.121-6.473-61.801-14.8-91.898-24.592-30.045-9.875-59.594-21.341-87.298-35.788-13.808-7.247-27.168-15.245-39.337-24.425-12.133-9.156-23.207-19.563-31.141-31.347-7.982-11.756-12.201-24.822-11.339-37.697 0.738-12.911 6.255-25.675 14.209-37.392 15.638-23.318 40.527-41.317 66.655-56.796 26.366-15.499 54.732-28.608 83.527-41.734 14.411-6.565 28.978-13.11 43.619-20.063 14.642-6.989 29.371-14.3 44.115-23.139 3.679-2.199 7.394-4.568 11.034-7.009 1.572-1.028 3.453-2.326 5.326-3.64l5.35-3.858c7.049-5.235 13.959-10.915 20.571-17.277 13.121-12.653 25.616-28.196 33.117-48.291 3.671-9.998 5.906-21.067 5.93-32.26 0.099-11.197-1.977-22.322-5.485-32.47-7.16-20.401-19.321-36.65-32.308-50.116-13.125-13.483-27.454-24.485-42.182-34.145-14.761-9.617-29.99-17.856-45.461-25.179-30.974-14.582-62.909-25.608-95.268-34.332-32.383-8.68-65.23-15.019-98.34-19.301l-95.22-11.943c0 0-57.026-6.866-94.986-11.407-31.684-3.786-229.126-14.185-229.126-14.185l56.499 101.344 23.488 0.345 47.255 1.076c31.573 0.841 63.206 1.885 94.859 3.044l95.030 3.798 71.319 3.203c7.878 0.389 16.015 0.714 23.377 1.199 30.125 1.913 60.146 5.715 89.616 11.597 29.446 5.898 58.408 13.895 85.73 24.655 27.128 10.748 53.204 24.457 72.688 41.913 9.653 8.672 17.281 18.277 21.341 27.735 4.040 9.486 4.795 18.527 1.941 28.636-2.854 10.065-9.645 20.825-18.734 30.724-9.002 9.875-20.361 19.333-32.141 27.454-24.294 16.495-52.676 30.851-80.709 45.802-28.176 14.963-56.776 30.256-84.198 48.66-13.689 9.224-27.088 19.262-39.607 30.772-12.447 11.526-24.163 24.647-33.109 40.107-8.672 15.166-15.245 33.082-14.876 52.141 0.151 9.438 2.088 18.865 5.501 27.469 3.39 8.625 8.164 16.416 13.614 23.326 10.982 13.828 24.389 24.385 38.269 33.344 13.943 8.938 28.561 16.225 43.413 22.647 29.76 12.756 60.503 22.052 91.489 29.716 31.018 7.565 62.341 13.566 93.879 17.682z" horiz-adv-x="1135" />
<glyph unicode="&#xe61c;" d="M1103.126 580.183c-2.913 13.419-15.737 21.611-29.767 21.611h-356.308l-116.645 336.507c-5.104 14.634-15.189 21.579-30.922 21.579-15.729 0-26.426-6.946-31.466-21.579l-116.645-336.507h-356.372c-15.737 0-25.644-7.045-30.93-21.611-4.060-15.745-0.603-27.473 10.518-36.161l285.775-223.387-103.829-342.334c-4.544-15.003 0-27.386 11.661-36.146 1.639-0.96 3.286-1.814 4.937-2.556 0.472-0.214 0.945-0.349 1.417-0.544 1.179-0.484 2.358-0.968 3.54-1.334 0.619-0.191 1.238-0.286 1.857-0.445 1.036-0.262 2.068-0.552 3.104-0.718 0.687-0.107 1.369-0.123 2.056-0.194 0.964-0.091 1.929-0.218 2.893-0.226 0.091-0.004 0.183-0.024 0.274-0.024 0.802 0 1.596 0.123 2.397 0.187 0.699 0.056 1.405 0.056 2.1 0.159 0.921 0.139 1.834 0.401 2.751 0.619 0.659 0.163 1.322 0.262 1.981 0.472 0.988 0.314 1.961 0.762 2.941 1.183 0.572 0.25 1.147 0.421 1.715 0.706 1.54 0.762 3.060 1.663 4.56 2.711l292.761 204.129 292.154-204.129c6.255-4.362 12.883-5.83 19.258-5.83 18.111 0 32.077 14.030 32.077 32.093 0 2.893-0.357 7.037-2.302 13.423l-102.674 338.793 285.775 223.387c11.482 8.99 14.582 21.032 9.359 36.165zM773.771 364.413c-18.083-14.138-25.612-37.932-18.956-59.896l84.563-279.028-238.068 166.34c-9.557 6.68-20.69 10.014-31.827 10.014v656.007l95.065-274.253c7.751-22.369 28.827-37.368 52.502-37.368h289.324l-232.603-181.816z" horiz-adv-x="1135" />
<glyph unicode="&#xe61d;" d="M578.135 572.583c-18.527 0-33.645-13.578-33.645-30.383v-343c0-16.805 15.118-30.45 33.645-30.45 18.615 0 33.649 13.645 33.649 30.45v343c0 16.805-15.031 30.383-33.649 30.383v0zM615.059 656.757c0-20.365-16.567-36.84-36.924-36.84-20.353 0-36.92 16.475-36.92 36.84 0 20.432 16.567 36.912 36.92 36.912 20.357 0 36.924-16.475 36.924-36.912v0zM578.135 895.758c119.602 0 232.043-46.576 316.61-131.143 84.575-84.571 131.147-197.013 131.147-316.61s-46.572-232.039-131.147-316.614c-84.571-84.571-197.013-131.147-316.61-131.147s-232.039 46.576-316.61 131.147c-84.571 84.571-131.143 197.009-131.143 316.61s46.572 232.043 131.143 316.614 197.013 131.143 316.61 131.143zM578.135 959.262c-282.358 0-511.258-228.9-511.258-511.262 0-282.358 228.9-511.266 511.258-511.266 282.366 0 511.262 228.908 511.262 511.266 0.004 282.362-228.896 511.262-511.262 511.262v0z" horiz-adv-x="1135" />
<glyph unicode="&#xe61e;" d="M97.193 892.547h925.938v-139.109h-925.938v139.109zM97.193 517.549h925.938v-139.109h-925.938v139.109zM97.193 142.55h925.938v-139.101h-925.938v139.101z" horiz-adv-x="1135" />
<glyph unicode="&#xe61f;" d="M569.011 440.681c-19.52 0-35.34 15.836-35.34 35.34v427.913c0 19.52 15.82 35.336 35.34 35.336 19.516 0 35.332-15.816 35.332-35.336v-427.913c0-19.504-15.816-35.34-35.332-35.34v0zM569.011-64.21c-248.3 0-450.302 202.002-450.302 450.302 0 99.292 31.688 193.445 91.644 272.289 57.983 76.264 140.324 133.037 231.813 159.843 18.722 5.525 38.364-5.231 43.838-23.961 5.497-18.734-5.239-38.36-23.961-43.853-160.546-47.044-272.658-196.866-272.658-364.322 0-209.313 170.29-379.622 379.626-379.622 209.317 0 379.614 170.309 379.614 379.622 0 167.452-112.116 317.273-272.65 364.322-18.734 5.497-29.474 25.124-23.977 43.853 5.481 18.73 25.124 29.47 43.853 23.961 91.493-26.807 173.814-83.583 231.805-159.843 59.96-78.848 91.644-173 91.644-272.289 0.008-248.3-201.994-450.302-450.29-450.302v0z" horiz-adv-x="1135" />
<glyph unicode="&#xe620;" d="M1078.645 448c0 27.604-2.223 54.681-6.43 81.102-3.076 19.301-7.224 38.245-12.403 56.765-21.139 75.625-59.241 144.158-109.937 201.264-85.869 96.736-207.872 160.661-344.866 170.583-1.187 0.083-27.997 1.369-37.447 1.369-90.12 0-174.779-23.358-248.292-64.306-38.035-21.179-73.101-47.048-104.369-76.867-62.428-59.535-109.794-134.723-135.839-219.263-0.401-1.29-2.878-11.014-3.425-12.991-12.244-43.834-19.154-89.918-19.154-137.657 0-60.757 11.157-119.641 30.609-173.699v-0.020c0.040-0.099 0.079-0.202 0.111-0.302 0.024-0.071 0.048-0.135 0.071-0.202v0.016c5.906-16.328 12.276-32.173 19.762-47.676 23.989-49.692 55.804-94.891 93.811-134.045 36.054-37.13 77.673-68.838 123.551-93.696 20.139-10.923 41.123-20.464 62.778-28.644v-0.071c21.818-9.077 82.694-27.735 127.909-30.148v0.107c17.261-1.758 34.756-2.707 52.482-2.707 47.525 0 93.521 6.513 137.18 18.65 4.961 1.373 29.386 9.069 36.574 11.665 116.081 41.968 212.583 124.777 272.221 231.071 8.121 13.713 15.316 28.017 21.448 42.853 28.037 63.246 43.655 133.211 43.655 206.848zM68.39 448c0 3.278 0.036 6.561 0.099 9.843l2.104-56.38c-1.465 15.463-2.203 30.986-2.203 46.536zM306.486 873.5l-4.358-106.81-68.731 52.137c22.627 20.397 47.108 38.71 73.089 54.673zM215.866 802.233l76.213-57.804-190.865-118.078c25.207 65.79 64.369 125.944 114.652 175.882zM301.191 722.063v-212.309l-200.744 88.124 200.744 124.186zM301.175 483.753l-0.568-281.453-198.803 368.973 199.37-87.52zM98.919 276.583l-9.879 268.633 199.033-369.815-172.092 60.218c-6.235 13.256-11.959 27.009-17.063 40.964zM131.473 204.923l152.326-53.466-80.67-44.528c-27.89 29.775-51.903 62.623-71.656 97.994zM220.462 89.302l82.107 45.318 8.335-114.839c-32.637 19.599-62.94 42.893-90.441 69.521zM313.098 154.402l-0.012 0.024 0.012 0.024v-0.048zM1060.118 367.223c0 0.159 0.012 0.31 0.012 0.464 0 37.674-6.358 73.911-17.92 107.794l21.718 25.517c1.869-17.63 2.81-35.368 2.81-52.998 0-27.124-2.258-54.149-6.62-80.777zM1059.566 532.611l-27.080-31.815c-12.828 29.565-29.763 56.975-50.116 81.472l68.072-7.366c3.64-13.876 6.696-28.053 9.125-42.29zM933.479 787.484l-100.463-101.618c-26.592 9.232-54.665 15.189-83.754 17.436l-123.721 240.529c118.216-13.63 226.51-68.537 307.938-156.347zM579.898 263.077l188.352 309.53c11.018-2.314 21.683-5.485 31.942-9.414l118.451-186.678-338.746-113.438zM913.761 349.771l-76.332-157.267c-32.633-20.917-71.68-33.109-114.101-33.109-54.463 0-103.916 20.861-140.979 55.502l-11.804 19.928 343.215 114.946zM564.704 283.918v220.767c37.979 44.683 94.581 72.593 158.625 72.593 6.533 0 12.979-0.329 19.345-0.885l-177.97-292.475zM608.736 924.442l113.2-220.073c-53.605-0.222-104.369-13.352-149.425-36.364l36.225 256.437zM330.895 887.57c70.529 38.039 149.937 58.566 230.475 59.567l-235.345-178.922 4.87 119.356zM387.199-17.495c-17.555 6.783-34.737 14.527-51.41 23.278l-9.387 128.294 61.043-30.954-0.246-120.618zM387.497 129.675l-44.54 22.576 44.619 16.273-0.079-38.848zM387.632 194.048l-50.426-18.333 50.585 96.708-0.159-78.376zM387.981 367.687l-0.087-43.687-62.889-120.225v280.449l111.144 56.59c-30.522-50.668-48.168-109.925-48.168-173.127zM465.92 582.696l-140.915-71.747v212.488l182.431-98.836c-15.003-12.748-28.918-26.751-41.516-41.905zM334.987 745.115l251.36 191.095-39.984-283.053c-6.315-3.973-12.482-8.16-18.511-12.534l-192.865 104.492zM540.89 470.080v-201.311c-15.705 29.196-24.985 62.77-25.81 98.919 0 37.451 9.351 72.283 25.81 102.392zM567.562-51.18c-17.563 0-35.078 0.984-52.482 2.83v86.746l155.565-78.892c-33.78-7.093-68.33-10.685-103.083-10.685zM515.080 65.024v40.21c40.912-33.046 90.279-56.312 144.082-66.758l39.321-66.389-183.403 92.938zM732.732-23.187c-2.647-0.929-5.235-1.822-7.791-2.675l-35.459 59.876c11.149-1.123 22.425-1.758 33.844-1.758 12.629 0 25.076 0.774 37.352 2.139l-27.946-57.582zM765.396-10.427l23.917 49.279c50.164 10.053 96.379 31.311 135.914 60.999-45.374-46.644-99.546-84.254-159.831-110.278zM883.347 232.575l45.457 93.652c-7.053-35.261-22.984-67.282-45.457-93.652zM842.296 541.287c45.973-31.18 78.265-80.336 87.707-138.22l-87.707 138.22zM857.187 676.443l92.104 93.164c42.040-49.89 74.224-108.131 93.974-169.972l-85.619 9.264c-28.986 28.152-62.96 51.168-100.459 67.544z" horiz-adv-x="1135" />
<glyph unicode="&#xe621;" d="M1060.773 483.364l-457.712 457.716c-20.353 20.075-50.636 20.075-71.021 0l-457.68-457.716c-20.103-20.381-20.103-50.664 0-71.017l457.68-457.712c20.385-20.103 50.668-20.103 71.021 0l457.712 457.712c20.107 20.353 20.107 50.636 0 71.017v0zM669.331 320.754v127.087h-203.566v-152.405h-101.487v203.292c0 30.529 20.353 50.914 50.914 50.914h254.139v127.087l177.728-178.001-177.728-177.974z" horiz-adv-x="1135" />
<glyph unicode="&#xe622;" d="M787.801 146.424h-407.147c-10.764 0-20.448 6.553-24.449 16.551l-117.304 293.261c-2.802 7.009-2.465 14.884 0.929 21.623l235.171 467.079c4.517 8.974 13.721 14.721 23.794 14.487l45.322-0.468c14.431-0.151 26.056-11.895 26.056-26.33v-359.908c6.716-0.056 11.871 0.147 17.801 0.385 1.929 0.079 3.937 0.155 6.092 0.23v359.249c0 14.439 11.625 26.179 26.056 26.326l49.541 0.512c0.091 0 0.183 0 0.274 0 9.938 0 19.039-5.596 23.516-14.491l235.163-467.079c3.393-6.739 3.731-14.614 0.929-21.623l-117.308-293.261c-3.989-9.99-13.673-16.543-24.437-16.543zM845.737-63.424c-0.024 0-0.052 0-0.075 0h-530.928c-9.22 0-17.777 4.83-22.544 12.729-4.767 7.894-5.053 17.714-0.754 25.874l62.504 118.693c4.552 8.652 13.522 14.062 23.298 14.062h405.024c9.716 0 18.642-5.35 23.223-13.923l62.524-117.034c2.572-4.068 4.064-8.895 4.064-14.066 0-14.546-11.792-26.334-26.334-26.334z" horiz-adv-x="1135" />
<glyph unicode="&#xe624;" d="M115.168 821.804h925.938v-69.553h-925.938v69.553zM115.168 479.2h925.938v-69.553h-925.938v69.553zM115.168 136.593h925.938v-69.553h-925.938v69.553z" horiz-adv-x="1135" />
<glyph unicode="&#xe625;" d="M567.931-66.941c-282.33 0-512.024 229.69-512.024 512.024 0 282.33 229.694 512.024 512.024 512.024s512.024-229.694 512.024-512.024c0.004-282.334-229.69-512.024-512.024-512.024zM567.931 892.658c-246.796 0-447.579-200.783-447.579-447.579s200.779-447.575 447.579-447.575 447.579 200.779 447.579 447.575c0 246.796-200.779 447.579-447.579 447.579zM782.828 581.14c1.080-4.354 1.627-10.184 1.627-17.515 0-7.335-0.548-12.907-1.627-16.702-1.091-3.806-1.365-7.331-0.814-10.589 0.536-3.259 0.262-6.799-0.818-10.589-1.088-3.259-1.905-6.656-2.441-10.184-0.548-3.536-1.365-6.922-2.445-10.18-1.091-4.354-2.314-8.426-3.663-12.221-1.365-3.806-2.854-7.613-4.481-11.407-1.095-1.631-1.77-3.136-2.040-4.481-0.278-1.365-0.953-2.584-2.036-3.667-5.981-10.871-12.498-20.647-19.551-29.327-1.095-2.179-2.854-4.354-5.295-6.517-2.445-2.179-4.481-3.806-6.112-4.886-2.175-1.095-4.068-2.584-5.703-4.481-1.627-1.909-3.255-3.397-4.89-4.481l-17.106-9.776c-5.981-4.354-13.038-7.613-21.183-9.776-8.148-2.179-16.293-4.354-24.441-6.521-4.358-1.095-8.692-1.766-13.038-2.036-4.35-0.278-8.692-0.953-13.030-2.036-2.179-0.548-4.219-0.687-6.116-0.409-1.909 0.27-3.667 0.127-5.295-0.409-2.723-0.548-5.291-0.548-7.736 0-2.449 0.536-5.033 0.536-7.744 0h-123.023c-8.148 0-16.979 0.127-26.477 0.409-9.51 0.27-16.702-1.5-21.587-5.295-5.981-4.354-8.835-12.221-8.553-23.627 0.266-11.407 0.405-21.996 0.405-31.772v-119.756c0-7.069 0.131-15.896 0.409-26.481 0.266-10.597-0.957-18.067-3.663-22.409-2.179-3.259-4.763-5.291-7.744-6.104-2.989-0.818-6.656-1.77-10.998-2.854h-14.661c-8.148 0-15.483 0.266-22 0.814-6.517 0.54-11.141 3.255-13.852 8.144-2.179 3.263-3.259 7.744-3.259 13.447 0 5.707 0 11.268 0 16.705v494.509c0 5.969-0.139 12.629-0.409 19.964-0.278 7.331 0.945 13.161 3.667 17.515 2.167 3.259 6.239 5.969 12.224 8.148 1.080 0.536 2.159 0.675 3.255 0.409 1.084-0.282 2.163-0.139 3.259 0.405h184.939c20.635 0 40.861-0.139 60.694-0.405 19.817-0.282 37.602-2.854 53.359-7.74 24.441-8.148 44.262-18.738 59.471-31.772 15.201-13.034 27.7-30.962 37.475-53.772 2.711-5.981 4.751-12.221 6.108-18.738 1.349-6.521 3.12-13.316 5.295-20.369 1.080-3.806 1.353-7.335 0.818-10.589-0.54-3.266-0.266-6.803 0.826-10.597zM706.246 551.809c2.167 7.601 2.441 16.42 0.814 26.477-1.627 10.046-3.259 18.051-4.886 24.036-5.438 15.197-12.629 27.291-21.591 36.253s-20.504 16.42-34.622 22.405c-11.955 4.886-25.66 7.867-41.143 8.962-15.479 1.080-31.645 1.627-48.473 1.627h-105.099c-1.091-0.548-2.314-0.814-3.667-0.814-1.357 0-2.85-0.282-4.477-0.814-6.521-1.631-10.871-5.172-13.038-10.593-2.179-5.434-3.136-12.625-2.85-21.587 0.266-8.962 0.405-17.249 0.405-24.85v-97.764c0-8.148-0.139-17.11-0.405-26.886-0.282-9.776 1.218-17.384 4.477-22.81 2.711-4.354 6.93-6.926 12.629-7.74 5.703-0.814 12.082-1.222 19.146-1.222h109.985c8.148 0 16.559 0.127 25.255 0.409 8.684 0.266 16.297 1.222 22.814 2.85 14.665 3.794 27.557 8.271 38.698 13.443 11.129 5.152 20.496 13.161 28.108 24.032 4.342 6.521 7.744 13.304 10.184 20.369 2.445 7.049 4.751 14.931 6.926 23.627 0.528 2.163 0.81 5.699 0.81 10.589z" horiz-adv-x="1135" />
</font>
</defs>
</svg>
